<?xml version="1.0" encoding="UTF-8"?>
<svg width="36px" height="46px" viewBox="0 0 36 46" version="1.1" xmlns="http://www.w3.org/2000/svg" xmlns:xlink="http://www.w3.org/1999/xlink">
    <!-- Generator: Sketch 46.2 (44496) - http://www.bohemiancoding.com/sketch -->
    <title>icons8-Trash Can</title>
    <desc>Created with Sketch.</desc>
    <defs></defs>
    <g id="Page-1" stroke="none" stroke-width="1" fill="none" fill-rule="evenodd">
        <g id="Tarifications-Desktop-HD" transform="translate(-503.000000, -621.000000)" fill-rule="nonzero" fill="#333333">
            <g id="Modal-1-Copy-2" transform="translate(455.000000, 585.000000)">
                <g id="Modal-layout">
                    <g id="icons8-Trash-Can" transform="translate(47.000000, 36.000000)">
                        <path d="M15,0 C13.354545,0 12,1.3545455 12,3 L12,5 L4.154297,5 C4.09814868,4.99061489 4.04130155,4.98604098 3.984375,4.9863281 C3.93593034,4.98737803 3.88762604,4.99194736 3.8398438,5 L2,5 C1.63936408,4.99489971 1.30391864,5.1843753 1.12211228,5.49587285 C0.940305922,5.8073704 0.940305922,6.1926296 1.12211228,6.50412715 C1.30391864,6.8156247 1.63936408,7.00510029 2,7 L3,7 L3,43 C3,44.645455 4.354545,46 6,46 L32,46 C33.645455,46 35,44.645455 35,43 L35,7 L36,7 C36.3606359,7.00510029 36.6960814,6.8156247 36.8778877,6.50412715 C37.0596941,6.1926296 37.0596941,5.8073704 36.8778877,5.49587285 C36.6960814,5.1843753 36.3606359,4.99489971 36,5 L34.167969,5 C34.0599776,4.98215095 33.9497884,4.98215095 33.841797,5 L26,5 L26,3 C26,1.3545455 24.645455,0 23,0 L15,0 Z M15,2 L23,2 C23.554545,2 24,2.4454545 24,3 L24,5 L14,5 L14,3 C14,2.4454545 14.445455,2 15,2 Z M5,7 L12.832031,7 C12.9400224,7.01784905 13.0502116,7.01784905 13.158203,7 L24.832031,7 C24.9400224,7.01784905 25.0502116,7.01784905 25.158203,7 L33,7 L33,43 C33,43.554545 32.554545,44 32,44 L6,44 C5.445455,44 5,43.554545 5,43 L5,7 Z M12.984375,11.986328 C12.4328588,11.9949491 11.9924473,12.4484681 12,13 L12,38 C11.9948997,38.3606359 12.1843753,38.6960814 12.4958728,38.8778877 C12.8073704,39.0596941 13.1926296,39.0596941 13.5041272,38.8778877 C13.8156247,38.6960814 14.0051003,38.3606359 14,38 L14,13 C14.0037015,12.7296997 13.8978233,12.4694133 13.7064903,12.2784483 C13.5151573,12.0874832 13.2546677,11.9821063 12.984375,11.986328 Z M18.984375,11.986328 C18.4328588,11.9949491 17.9924473,12.4484681 18,13 L18,38 C17.9948997,38.3606359 18.1843753,38.6960814 18.4958728,38.8778877 C18.8073704,39.0596941 19.1926296,39.0596941 19.5041272,38.8778877 C19.8156247,38.6960814 20.0051003,38.3606359 20,38 L20,13 C20.0037015,12.7296997 19.8978233,12.4694133 19.7064903,12.2784483 C19.5151573,12.0874832 19.2546677,11.9821063 18.984375,11.986328 Z M24.984375,11.986328 C24.4328588,11.9949491 23.9924473,12.4484681 24,13 L24,38 C23.9948997,38.3606359 24.1843753,38.6960814 24.4958728,38.8778877 C24.8073704,39.0596941 25.1926296,39.0596941 25.5041272,38.8778877 C25.8156247,38.6960814 26.0051003,38.3606359 26,38 L26,13 C26.0037015,12.7296997 25.8978233,12.4694133 25.7064903,12.2784483 C25.5151573,12.0874832 25.2546677,11.9821063 24.984375,11.986328 Z" id="Shape"></path>
                    </g>
                </g>
            </g>
        </g>
    </g>
</svg>